<?xml version="1.0" standalone="no"?>
<!DOCTYPE svg PUBLIC "-//W3C//DTD SVG 20010904//EN"
 "http://www.w3.org/TR/2001/REC-SVG-20010904/DTD/svg10.dtd">
<svg version="1.0" xmlns="http://www.w3.org/2000/svg"
 width="173.000000pt" height="173.000000pt" viewBox="0 0 173.000000 173.000000"
 preserveAspectRatio="xMidYMid meet">
 
 <style>
	 g {
      fill: black;
    }
    @media (prefers-color-scheme: dark) {
      g {
        fill: white;
      }
    }
 </style>

<g transform="translate(0.000000,173.000000) scale(0.100000,-0.100000)"
 stroke="none">
<path d="M764 1491 c-38 -16 -64 -60 -64 -107 l0 -44 -279 0 c-241 0 -282 -2
-295 -16 -13 -13 -16 -45 -16 -194 l0 -179 30 -22 29 -22 0 -336 c0 -331 1
-336 22 -353 20 -17 68 -18 689 -18 621 0 669 1 689 18 21 17 21 22 22 353 l0
336 30 22 29 22 0 179 c0 149 -3 181 -16 194 -13 14 -54 16 -295 16 l-279 0 0
45 c0 35 -6 52 -29 77 l-29 33 -109 2 c-59 2 -118 -1 -129 -6z m228 -58 c11
-10 18 -30 18 -55 l0 -38 -130 0 -130 0 0 37 c0 62 19 73 128 73 75 0 99 -4
114 -17z m608 -303 c0 -88 -1 -160 -3 -160 -3 0 -547 -156 -576 -165 -16 -5
-21 -2 -21 12 0 10 -7 29 -16 41 -14 20 -24 22 -104 22 -80 0 -90 -2 -104 -22
-9 -12 -16 -31 -16 -41 0 -14 -5 -17 -21 -12 -29 9 -573 165 -576 165 -2 0 -3
72 -3 160 l0 160 720 0 720 0 0 -160z m-1122 -300 c136 -39 255 -73 265 -76
11 -4 17 -15 17 -35 0 -52 29 -69 120 -69 91 0 120 17 120 69 0 20 6 31 18 35
131 39 514 146 521 146 7 0 10 -111 8 -322 l-2 -323 -665 0 -665 0 -3 323 c-1
222 1 322 8 322 6 0 122 -32 258 -70z m472 -66 l0 -64 -70 0 -70 0 0 64 0 65
43 3 c23 2 54 1 70 -1 26 -3 27 -5 27 -67z"/>
</g>
</svg>
